<svg width="35" height="48" viewBox="0 0 35 48" fill="none" xmlns="http://www.w3.org/2000/svg">
<path d="M21.734 32.7371L12.3105 36.7679L12.7463 32.029L21.4616 28.325L21.734 32.7371Z" fill="white"/>
<path d="M22.442 43.032C21.3525 43.1955 20.2631 43.5223 19.3916 44.1759C18.3022 44.993 17.6485 46.2458 16.5591 47.0629C15.0339 48.1523 13.0185 48.0434 11.1665 47.9344L11.7657 41.9426L22.0607 37.585L22.442 43.032Z" fill="white"/>
<path d="M21.4612 19.2827H20.9165V15.5787H21.4612C21.8425 15.5787 22.0604 15.1974 21.8425 14.8706L20.045 13.5633L18.5198 11.33C17.9751 10.5674 16.8312 10.5674 16.2865 11.33L14.7068 13.5633L12.9093 14.8706C12.6914 15.1974 12.9093 15.5787 13.2906 15.5787H13.8353V19.2827H13.2906C12.9093 19.2827 12.6914 19.7185 12.9093 19.9909L13.7808 21.2982L13.2361 26.8542L21.0799 23.5315L20.971 21.2982L21.8425 19.9909C22.0604 19.664 21.8425 19.2827 21.4612 19.2827ZM19.2824 19.2827H15.4694V15.5787H19.2824V19.2827Z" fill="white"/>
<path d="M17.3763 7.68039C17.0494 7.68039 16.8315 7.4625 16.8315 7.13568V0.544708C16.8315 0.217883 17.0494 0 17.3763 0C17.7031 0 17.921 0.217883 17.921 0.544708V7.13568C17.921 7.4625 17.7031 7.68039 17.3763 7.68039Z" fill="white"/>
<path d="M7.13568 17.9754H0.544708C0.217883 17.9754 0 17.7575 0 17.4307C0 17.1039 0.217883 16.886 0.544708 16.886H7.13568C7.4625 16.886 7.68039 17.1039 7.68039 17.4307C7.68039 17.7575 7.40803 17.9754 7.13568 17.9754Z" fill="white"/>
<path d="M9.80488 10.4584C9.64147 10.4584 9.53253 10.404 9.42359 10.295L4.7391 5.66502C4.52121 5.44713 4.52121 5.12031 4.7391 4.90243C4.95698 4.68454 5.2838 4.68454 5.50169 4.90243L10.1862 9.58692C10.4041 9.8048 10.4041 10.1316 10.1862 10.3495C10.0772 10.404 9.91382 10.4584 9.80488 10.4584Z" fill="white"/>
<path d="M34.2621 17.9754H27.6712C27.3443 17.9754 27.1265 17.7575 27.1265 17.4307C27.1265 17.1039 27.3443 16.886 27.6712 16.886H34.2621C34.589 16.886 34.8068 17.1039 34.8068 17.4307C34.8068 17.7575 34.589 17.9754 34.2621 17.9754Z" fill="white"/>
<path d="M25.0022 10.4582C24.8388 10.4582 24.7299 10.4038 24.6209 10.2948C24.403 10.0769 24.403 9.75011 24.6209 9.53223L29.3054 4.84774C29.5233 4.62986 29.8501 4.62986 30.068 4.84774C30.2859 5.06562 30.2859 5.39245 30.068 5.61033L25.3835 10.2948C25.2746 10.4038 25.1656 10.4582 25.0022 10.4582Z" fill="white"/>
<path d="M5.12039 30.1223C4.95698 30.1223 4.84804 30.0678 4.7391 29.9589C4.52121 29.741 4.52121 29.4142 4.7391 29.1963L9.42359 24.5118C9.64147 24.2939 9.96829 24.2939 10.1862 24.5118C10.4041 24.7297 10.4041 25.0565 10.1862 25.2744L5.50169 29.9589C5.39275 30.0678 5.2838 30.1223 5.12039 30.1223Z" fill="white"/>
<path d="M29.6867 30.1223C29.5233 30.1223 29.4144 30.0678 29.3054 29.9589L24.6209 25.2744C24.403 25.0565 24.403 24.7297 24.6209 24.5118C24.8388 24.2939 25.1656 24.2939 25.3835 24.5118L30.068 29.1963C30.2859 29.4142 30.2859 29.741 30.068 29.9589C29.9591 30.0678 29.7957 30.1223 29.6867 30.1223Z" fill="white"/>
<path d="M8.00732 13.8356C7.95285 13.8356 7.84391 13.8356 7.78944 13.7811L3.92201 12.0925C3.64966 11.9836 3.54072 11.6568 3.64966 11.3844C3.7586 11.1121 4.08542 11.0031 4.35778 11.1121L8.22521 12.8007C8.49756 12.9096 8.6065 13.2364 8.49756 13.5088C8.38862 13.7267 8.22521 13.8356 8.00732 13.8356Z" fill="white"/>
<path d="M13.4545 8.06182C13.2366 8.06182 13.0187 7.95288 12.9643 7.735L11.6025 4.19439C11.4935 3.92204 11.657 3.59521 11.9293 3.48627C12.2017 3.37733 12.5285 3.54074 12.6374 3.8131L13.9992 7.3537C14.1081 7.62605 13.9447 7.95288 13.6724 8.06182C13.5634 8.00735 13.509 8.06182 13.4545 8.06182Z" fill="white"/>
<path d="M21.2981 8.0616C21.2436 8.0616 21.1891 8.0616 21.0802 8.00713C20.8078 7.89819 20.6444 7.57137 20.7534 7.29901L22.1151 3.75841C22.2241 3.48606 22.5509 3.32264 22.8233 3.43158C23.0956 3.54053 23.259 3.86735 23.1501 4.13971L21.8428 7.68031C21.7338 7.89819 21.516 8.0616 21.2981 8.0616Z" fill="white"/>
<path d="M30.6125 23.7492C30.558 23.7492 30.4491 23.7492 30.3946 23.6947L26.5817 22.0061C26.3093 21.8972 26.2004 21.5703 26.3093 21.298C26.4183 21.0256 26.7451 20.9167 27.0174 21.0256L30.8304 22.7142C31.1028 22.8232 31.2117 23.15 31.1028 23.4224C31.0483 23.6402 30.8304 23.7492 30.6125 23.7492Z" fill="white"/>
<path d="M27.3989 14.1623C27.181 14.1623 26.9631 14.0533 26.9086 13.8355C26.7997 13.5631 26.9631 13.2363 27.2355 13.1273L30.7216 11.7656C30.9939 11.6566 31.3208 11.82 31.4297 12.0924C31.5387 12.3647 31.3752 12.6916 31.1029 12.8005L27.6168 14.1623C27.5078 14.1623 27.4533 14.1623 27.3989 14.1623Z" fill="white"/>
<path d="M3.86762 23.1501C3.64974 23.1501 3.43186 23.0411 3.37739 22.8233C3.26844 22.5509 3.43186 22.2241 3.70421 22.1151L7.24481 20.7534C7.51717 20.6444 7.84399 20.8078 7.95294 21.0802C8.06188 21.3525 7.89846 21.6794 7.62611 21.7883L4.08551 23.1501C4.03104 23.1501 3.97656 23.1501 3.86762 23.1501Z" fill="white"/>
</svg>
