<svg width="24" height="24" viewBox="0 0 24 24" fill="none" xmlns="http://www.w3.org/2000/svg">
<path d="M20.9998 6C20.9998 5.20435 20.6837 4.44129 20.1211 3.87868C19.5585 3.31607 18.7955 3 17.9998 3H5.99982C5.3958 3.00358 4.80694 3.1894 4.31027 3.53315C3.8136 3.8769 3.43227 4.36257 3.21616 4.92661C3.00005 5.49065 2.95924 6.10679 3.09906 6.6944C3.23889 7.28202 3.55283 7.81374 3.99982 8.22V18C3.99982 18.7956 4.31589 19.5587 4.8785 20.1213C5.44111 20.6839 6.20417 21 6.99982 21H16.9998C17.7955 21 18.5585 20.6839 19.1211 20.1213C19.6837 19.5587 19.9998 18.7956 19.9998 18V8.22C20.3124 7.94042 20.5629 7.59839 20.7352 7.21601C20.9074 6.83363 20.9976 6.41938 20.9998 6V6ZM5.99982 5H17.9998C18.265 5 18.5194 5.10536 18.7069 5.29289C18.8945 5.48043 18.9998 5.73478 18.9998 6C18.9998 6.26522 18.8945 6.51957 18.7069 6.70711C18.5194 6.89464 18.265 7 17.9998 7H5.99982C5.7346 7 5.48025 6.89464 5.29271 6.70711C5.10517 6.51957 4.99982 6.26522 4.99982 6C4.99982 5.73478 5.10517 5.48043 5.29271 5.29289C5.48025 5.10536 5.7346 5 5.99982 5V5ZM17.9998 18C17.9998 18.2652 17.8945 18.5196 17.7069 18.7071C17.5194 18.8946 17.265 19 16.9998 19H6.99982C6.7346 19 6.48025 18.8946 6.29271 18.7071C6.10517 18.5196 5.99982 18.2652 5.99982 18V9H17.9998V18Z" fill="white"/>
<path d="M14.13 12H9.87C9.38951 12 9 12.3895 9 12.87V13.13C9 13.6105 9.38951 14 9.87 14H14.13C14.6105 14 15 13.6105 15 13.13V12.87C15 12.3895 14.6105 12 14.13 12Z" fill="white"/>
</svg>
