<svg width="25" height="24" viewBox="0 0 25 24" fill="none" xmlns="http://www.w3.org/2000/svg">
<path d="M12.5027 2C10.4931 2 8.52858 2.58649 6.85762 3.6853C5.18666 4.78412 3.88431 6.3459 3.11526 8.17317C2.3462 10.0004 2.14498 12.0111 2.53704 13.9509C2.9291 15.8907 3.89684 17.6725 5.31787 19.0711C6.7389 20.4696 8.54941 21.422 10.5204 21.8079C12.4915 22.1937 14.5345 21.9957 16.3912 21.2388C18.2478 20.4819 19.8347 19.2002 20.9512 17.5557C22.0677 15.9112 22.6637 13.9778 22.6637 12C22.6637 10.6868 22.4008 9.38642 21.8902 8.17317C21.3796 6.95991 20.6311 5.85752 19.6876 4.92893C18.7441 4.00035 17.6239 3.26375 16.3912 2.7612C15.1584 2.25866 13.8371 2 12.5027 2ZM12.5027 20C10.895 20 9.32341 19.5308 7.98664 18.6518C6.64988 17.7727 5.608 16.5233 4.99275 15.0615C4.37751 13.5997 4.21653 11.9911 4.53018 10.4393C4.84383 8.88743 5.61802 7.46197 6.75484 6.34315C7.89167 5.22433 9.34007 4.4624 10.9169 4.15372C12.4937 3.84504 14.1281 4.00346 15.6135 4.60896C17.0988 5.21447 18.3683 6.23984 19.2615 7.55544C20.1547 8.87103 20.6315 10.4177 20.6315 12C20.6315 14.1217 19.7751 16.1566 18.2506 17.6569C16.7262 19.1571 14.6586 20 12.5027 20Z" fill="white"/>
<path d="M16.5668 11H13.5185V8C13.5185 7.73478 13.4115 7.48043 13.2209 7.29289C13.0304 7.10536 12.7719 7 12.5024 7C12.2329 7 11.9745 7.10536 11.7839 7.29289C11.5934 7.48043 11.4863 7.73478 11.4863 8V12C11.4863 12.2652 11.5934 12.5196 11.7839 12.7071C11.9745 12.8946 12.2329 13 12.5024 13H16.5668C16.8363 13 17.0947 12.8946 17.2853 12.7071C17.4758 12.5196 17.5829 12.2652 17.5829 12C17.5829 11.7348 17.4758 11.4804 17.2853 11.2929C17.0947 11.1054 16.8363 11 16.5668 11Z" fill="white"/>
</svg>
