<svg width="24" height="24" viewBox="0 0 24 24" fill="none" xmlns="http://www.w3.org/2000/svg">
<path d="M11.8939 2C9.93362 2 8.01733 2.58649 6.38739 3.6853C4.75746 4.78412 3.48707 6.3459 2.73689 8.17317C1.98672 10.0004 1.79044 12.0111 2.17287 13.9509C2.55531 15.8907 3.49929 17.6725 4.88544 19.0711C6.27159 20.4696 8.03765 21.422 9.96029 21.8079C11.8829 22.1937 13.8758 21.9957 15.6869 21.2388C17.498 20.4819 19.046 19.2002 20.135 17.5557C21.2241 15.9112 21.8054 13.9778 21.8054 12C21.8054 10.6868 21.5491 9.38642 21.051 8.17317C20.5529 6.95991 19.8228 5.85752 18.9024 4.92893C17.9821 4.00035 16.8894 3.26375 15.6869 2.7612C14.4844 2.25866 13.1955 2 11.8939 2ZM11.8939 20C10.3257 20 8.79265 19.5308 7.4887 18.6518C6.18475 17.7727 5.16845 16.5233 4.5683 15.0615C3.96816 13.5997 3.81114 11.9911 4.11709 10.4393C4.42304 8.88743 5.17822 7.46197 6.28714 6.34315C7.39606 5.22433 8.80891 4.4624 10.347 4.15372C11.8851 3.84504 13.4794 4.00346 14.9283 4.60896C16.3772 5.21447 17.6156 6.23984 18.4868 7.55544C19.3581 8.87103 19.8231 10.4177 19.8231 12C19.8231 14.1217 18.9877 16.1566 17.5007 17.6569C16.0137 19.1571 13.9969 20 11.8939 20Z" fill="#828282"/>
<path d="M14.5798 9.28994C14.4876 9.19621 14.378 9.12182 14.2572 9.07105C14.1364 9.02028 14.0069 8.99414 13.8761 8.99414C13.7452 8.99414 13.6157 9.02028 13.4949 9.07105C13.3741 9.12182 13.2645 9.19621 13.1723 9.28994L11.8937 10.5899L10.6152 9.28994C10.4285 9.10164 10.1754 8.99585 9.91145 8.99585C9.6475 8.99585 9.39437 9.10164 9.20773 9.28994C9.02109 9.47824 8.91624 9.73364 8.91624 9.99994C8.91624 10.2662 9.02109 10.5216 9.20773 10.7099L10.4962 11.9999L9.20773 13.2899C9.11483 13.3829 9.0411 13.4935 8.99078 13.6154C8.94046 13.7372 8.91455 13.8679 8.91455 13.9999C8.91455 14.132 8.94046 14.2627 8.99078 14.3845C9.0411 14.5064 9.11483 14.617 9.20773 14.7099C9.29987 14.8037 9.40949 14.8781 9.53027 14.9288C9.65106 14.9796 9.7806 15.0057 9.91145 15.0057C10.0423 15.0057 10.1718 14.9796 10.2926 14.9288C10.4134 14.8781 10.523 14.8037 10.6152 14.7099L11.8937 13.4099L13.1723 14.7099C13.2645 14.8037 13.3741 14.8781 13.4949 14.9288C13.6157 14.9796 13.7452 15.0057 13.8761 15.0057C14.0069 15.0057 14.1364 14.9796 14.2572 14.9288C14.378 14.8781 14.4876 14.8037 14.5798 14.7099C14.6727 14.617 14.7464 14.5064 14.7967 14.3845C14.847 14.2627 14.8729 14.132 14.8729 13.9999C14.8729 13.8679 14.847 13.7372 14.7967 13.6154C14.7464 13.4935 14.6727 13.3829 14.5798 13.2899L13.2913 11.9999L14.5798 10.7099C14.6727 10.617 14.7464 10.5064 14.7967 10.3845C14.847 10.2627 14.8729 10.132 14.8729 9.99994C14.8729 9.86793 14.847 9.73722 14.7967 9.61536C14.7464 9.4935 14.6727 9.3829 14.5798 9.28994Z" fill="#828282"/>
</svg>
