<svg width="24" height="24" viewBox="0 0 24 24" fill="none" xmlns="http://www.w3.org/2000/svg">
<path d="M21.08 6.99998C20.9072 6.7006 20.6598 6.45111 20.3618 6.27585C20.0639 6.10059 19.7256 6.00554 19.38 5.99998H6.58L6 3.73998C5.9414 3.52181 5.81066 3.32992 5.62908 3.19555C5.44749 3.06118 5.22576 2.99224 5 2.99998H3C2.73478 2.99998 2.48043 3.10533 2.29289 3.29287C2.10536 3.48041 2 3.73476 2 3.99998C2 4.26519 2.10536 4.51955 2.29289 4.70708C2.48043 4.89462 2.73478 4.99998 3 4.99998H4.24L7 15.26C7.0586 15.4781 7.18934 15.67 7.37092 15.8044C7.55251 15.9388 7.77424 16.0077 8 16H17C17.1847 15.9994 17.3656 15.9477 17.5227 15.8507C17.6798 15.7536 17.8069 15.6149 17.89 15.45L21.17 8.88998C21.3122 8.59199 21.3783 8.26345 21.3626 7.93366C21.3469 7.60387 21.2498 7.2831 21.08 6.99998ZM16.38 14H8.76L7.13 7.99998H19.38L16.38 14Z" fill="white"/>
<path d="M7.5 21C8.32843 21 9 20.3284 9 19.5C9 18.6716 8.32843 18 7.5 18C6.67157 18 6 18.6716 6 19.5C6 20.3284 6.67157 21 7.5 21Z" fill="white"/>
<path d="M17.5 21C18.3284 21 19 20.3284 19 19.5C19 18.6716 18.3284 18 17.5 18C16.6716 18 16 18.6716 16 19.5C16 20.3284 16.6716 21 17.5 21Z" fill="white"/>
</svg>
